<?xml version="1.0" encoding="iso-8859-1"?>
<!-- Uploaded to: SVG Repo, www.svgrepo.com, Generator: SVG Repo Mixer Tools -->
<svg height="800px" width="800px" version="1.1" id="Layer_1" xmlns="http://www.w3.org/2000/svg" xmlns:xlink="http://www.w3.org/1999/xlink" 
	 viewBox="0 0 512 512" xml:space="preserve">
<circle style="fill:#FF6472;" cx="256" cy="256" r="256"/>
<path style="fill:#C75163;" d="M310.315,506.206c100.845-21.79,179.579-102.978,197.725-205.131L383.317,176.352l-46.568,54.874
	l-52.695-52.693L123.039,318.931L310.315,506.206z"/>
<path style="fill:#E6F3FF;" d="M238.295,255.264c12.335,34.725-5.815,72.875-40.541,85.211s-72.875-5.815-85.211-40.541
	c-16.379-46.109-4.47-117.286,25.379-127.89C169.553,160.809,220.832,206.107,238.295,255.264z"/>
<path style="fill:#CFDBE6;" d="M273.704,253.933c-12.335,34.725,5.815,72.875,40.541,85.211s72.875-5.815,85.211-40.541
	c16.379-46.109,4.47-117.286-25.379-127.89C342.447,159.479,291.168,204.776,273.704,253.933z"/>
<path style="fill:#FFFFFF;" d="M322.996,277.575c0,36.85-29.874,66.724-66.724,66.724s-66.724-29.874-66.724-66.724
	c0-48.931,35.047-112.016,66.724-112.016C289.835,165.559,322.996,225.408,322.996,277.575z"/>
<path style="fill:#E6F3FF;" d="M256.271,165.559c-0.471,0-0.946,0.059-1.419,0.086v178.619c0.474,0.01,0.943,0.036,1.419,0.036
	c36.85,0,66.724-29.874,66.724-66.724C322.996,225.408,289.835,165.559,256.271,165.559z"/>
</svg>