<?xml version="1.0" encoding="utf-8"?>
<!-- Uploaded to: SVG Repo, www.svgrepo.com, Generator: SVG Repo Mixer Tools -->
<svg width="800px" height="800px" viewBox="-18.72 0 335.556 335.556" xmlns="http://www.w3.org/2000/svg"><defs><style>.a{fill:#ffffff;}.b{fill:#211715;}.c{fill:#79c6e0;}.d{fill:#87cce3;}.e{fill:#fce0cd;}</style></defs><path class="a" d="M63.741,333.156c-18.41,0-34.673-.092-47.8-.14a12.7,12.7,0,0,1-12.66-12.487c-.788-46.883-.224-106.44.608-120.954.143-2.5,2.221-17.944,8.926-27.831,5.058-7.458,11.07-11.4,17.166-14.817a12.669,12.669,0,0,0,6.452-11.063V129.03c0-2.492,1.255-6.781,5.289-6.867H56.188c0-8.532-.071-18.7-.107-28.028C52.3,94.12,48.565,94.1,45.41,94.1c-1.386,0-3-1.069-3-2.225,0-4.359.007-8.025.007-12.469a3.319,3.319,0,0,1,.359-1.635,2.617,2.617,0,0,1,1.336-1.109c6.374-1.818,12.613-1.848,19.352-1.848,6.254,0,12.981.03,19.354,1.848a2.618,2.618,0,0,1,1.337,1.109,3.319,3.319,0,0,1,.359,1.635c0,.475.018,1.335.018,1.794,10.46,0,37.29-.337,47.634-.337a8.6,8.6,0,0,1,7.207,3.4c2.53,3.861,7.786,13.02,9.845,17,1.233,2.386.2,2.85-2.608,4.4s-4.946,2.625-6.22.187c-2.158-4.128-5.992-10.943-7.171-13.024a5.035,5.035,0,0,0-4.517-2.86c-8.857,0-36.635.223-44.181.223v1.681c0,1.156-1.617,2.225-3,2.225-3.137,0-6.848.019-10.6.033.035,9.333.108,19.5.107,28.03H85.657c4.035.086,5.29,4.375,5.29,6.867v16.806A12.67,12.67,0,0,0,97.4,156.9c6.113,3.421,12.143,7.365,17.214,14.843,6.7,9.887,8.783,25.331,8.926,27.831.831,14.515,1.4,74.077.607,120.961A12.7,12.7,0,0,1,111.5,333.021c-12.683.048-29.944.135-47.806.135"/><path class="b" d="M86.929,81.2c-.01-1.807.085-3.7-1.1-5.19-1.311-1.647-3.4-1.988-5.353-2.384A69.029,69.029,0,0,0,68,72.443c-4.09-.073-8.2-.1-12.286.092-4.019.184-8.412.484-12.241,1.813-4.5,1.563-3.457,7.115-3.46,10.876,0,2.055-.037,4.114,0,6.17a4.8,4.8,0,0,0,2.8,4.458c1.734.849,3.678.648,5.552.653s3.722.013,5.583.022c3.9.017,7.793.039,11.69.029,4.381-.012,8.763-.04,13.145-.052,1.994-.005,4.054.192,5.822-.914a4.872,4.872,0,0,0,2.11-2.511,9.392,9.392,0,0,0,.212-2.885c0-3.089-4.8-3.094-4.8,0v1.362q-.023.668.053-.057c-.223.06-.42.16-.656.2a27.166,27.166,0,0,1-4.4.009q-4.859.018-9.716.041c-6.348.022-12.695-.028-19.042-.045q-1.093,0-2.187,0c-.17,0-1.176-.186-1.267-.159-.01,0-.853-.3-.095.333a5.98,5.98,0,0,1,0-.957q0-1.388,0-2.773,0-2.478.005-4.956,0-1.164,0-2.329a4.58,4.58,0,0,1,.133-1.976l-.2.092c.3-.086.606-.169.91-.247s.605-.154.908-.225q1.352-.318,2.72-.546c1.6-.268,3.207-.426,4.82-.534,3.412-.228,6.836-.214,10.253-.209a102.939,102.939,0,0,1,11.065.45,41.933,41.933,0,0,1,5.383.948,4.454,4.454,0,0,1,1.371.363c-.352-.336-.041.1-.056.223a16.7,16.7,0,0,0,.008,2c.018,3.087,4.818,3.094,4.8,0Z"/><path class="b" d="M84.529,83.6c10.3,0,20.6-.142,30.9-.232,4.912-.043,9.824-.087,14.736-.1,2.243-.007,4.6-.019,6.346,1.4.03.024.312.287.427.4.074.075.462.521.318.335s.172.272.224.351c.154.237.306.477.457.716.685,1.085,1.351,2.183,2.009,3.285q2.225,3.718,4.345,7.5.95,1.686,1.874,3.386.364.672.72,1.347c.112.213.225.425.33.641.142.29.078.174.052.119.179.387-.035.08.058.048.06-.022-.183.883.089-.135.216-.809,0-.243,0-.171.032-.231.054-.093-.073-.015-.64.389-1.285.762-1.941,1.124a18.443,18.443,0,0,1-2.057,1.064c-.2.079-.439.106-.636.2.019-.009-.43.089-.23.049.239-.047.09.116.069,0,0,.021-.033-.13.008,0,0,.011.073.025.078.035-.119-.228-.256-.467-.381-.7-.338-.634-.673-1.269-1.014-1.9q-1.086-2.013-2.195-4.014c-1.212-2.194-2.419-4.394-3.671-6.566a7.862,7.862,0,0,0-7.164-4.188c-4.184-.011-8.37.03-12.554.054-9.7.055-19.4.136-29.1.165q-1.008,0-2.017,0c-3.088,0-3.093,4.8,0,4.8,9.548,0,19.1-.1,28.643-.155q7.016-.042,14.032-.067a6.354,6.354,0,0,1,2.515.191,4.727,4.727,0,0,1,1.886,2.3q2.067,3.665,4.094,7.351c.761,1.388,1.517,2.778,2.257,4.177a5.512,5.512,0,0,0,3.31,3.15,6.879,6.879,0,0,0,4.657-.807,24.529,24.529,0,0,0,4.16-2.342,4.333,4.333,0,0,0,2.043-3.594,9.038,9.038,0,0,0-1.437-3.876c-1.307-2.445-2.675-4.858-4.059-7.259-1.433-2.485-2.884-4.963-4.409-7.393a11.519,11.519,0,0,0-5.859-5.076c-2.459-.932-5.157-.729-7.739-.717q-3.747.017-7.494.049c-11.254.088-22.508.229-33.763.272q-1.417.006-2.837.007c-3.088,0-3.093,4.8,0,4.8Z"/><path class="b" d="M68.512,94.456c.036,9.161.105,18.322.106,27.483,0,3.088,4.8,3.093,4.8,0,0-9.161-.07-18.322-.106-27.483-.012-3.088-4.812-3.094-4.8,0Z"/><path class="b" d="M53.683,94.456c.035,9.161.1,18.322.1,27.483,0,3.088,4.8,3.093,4.8,0,0-9.161-.07-18.322-.105-27.483-.012-3.088-4.812-3.094-4.8,0Z"/><path class="c" d="M166.35,127.586l15.5,13.149a2.462,2.462,0,0,0,3.394,0,2.42,2.42,0,0,0,0-3.394l-15.5-13.149a2.464,2.464,0,0,0-3.394,0,2.42,2.42,0,0,0,0,3.394Z"/><path class="c" d="M155.284,132.863l7.49,20.381a2.466,2.466,0,0,0,2.953,1.677,2.421,2.421,0,0,0,1.676-2.953l-7.49-20.381a2.467,2.467,0,0,0-2.953-1.677,2.421,2.421,0,0,0-1.676,2.953Z"/><path class="c" d="M141.816,135.833l.549,18.148a2.4,2.4,0,0,0,4.8,0l-.549-18.148a2.4,2.4,0,1,0-4.8,0Z"/><path class="d" d="M29.717,199.689c30.985-.035,68.547-.083,93.825-.114.429,19.473.793,54.484.814,82.808-3.908,0-132.236.382-121.3.3.05-28.325.452-63.322.864-82.966C11.571,199.71,20.343,199.7,29.717,199.689Z"/><path class="b" d="M124.356,279.983c-4.508,0-9.015.022-13.522.035l-29.283.081-34.7.1q-14.88.041-29.76.076l-9.8.021c-1.544,0-3.141-.116-4.682,0a1.145,1.145,0,0,1-.219,0l2.314,1.762h0l-1.676,2.952c-1.289.186-.326.081.023.078,3.087-.023,3.1-4.823,0-4.8a9.062,9.062,0,0,0-1.3.094,2.416,2.416,0,0,0-1.677,2.952h0A2.512,2.512,0,0,0,2.4,285.091a25.9,25.9,0,0,0,3.2,0q4.319-.006,8.638-.016,14.208-.032,28.416-.071l34.645-.095,30.525-.085c5.35-.015,10.709.06,16.058-.042.158,0,.317,0,.475,0,3.088,0,3.093-4.8,0-4.8Z"/><path class="b" d="M3.923,202.117q24.327-.024,48.655-.055L100.151,202l23.391-.029c3.088,0,3.094-4.8,0-4.8l-43.683.054-47.868.058-28.068.03c-3.088,0-3.094,4.8,0,4.8Z"/><path class="b" d="M63.69,335.556q20.746,0,41.492-.11a60.548,60.548,0,0,0,8.679-.234,15.1,15.1,0,0,0,11.884-10.024c.928-2.643.819-5.452.861-8.211q.56-36.858.213-73.725c-.076-9.676-.187-19.351-.4-29.024-.119-5.5.021-11.155-.689-16.625-1.266-9.758-3.992-20.148-9.84-28.2a47.446,47.446,0,0,0-13.5-12.354c-2.286-1.426-4.894-2.5-6.663-4.6a10.434,10.434,0,0,1-2.379-6.619c-.069-5.474.011-10.951,0-16.424-.009-3.8-1.617-8.012-5.527-9.3-2.365-.777-5.307-.349-7.767-.349H45.258c-2.547,0-5.3-.32-7.5,1.244-2.93,2.087-3.727,5.615-3.727,9.008v9.876a53.3,53.3,0,0,1-.085,7.445,10.448,10.448,0,0,1-3.567,6.42c-2.037,1.731-4.7,2.826-6.928,4.313a45.435,45.435,0,0,0-13.1,13.051A54.717,54.717,0,0,0,3.916,186.5a80.457,80.457,0,0,0-2.31,11.835c-.258,2.227-.277,4.492-.353,6.731-.27,8.015-.391,16.035-.5,24.053Q.294,264.708.627,300.3q.081,9.128.222,18.256a19.485,19.485,0,0,0,1.586,8.425,15.133,15.133,0,0,0,5.314,5.991c4.736,3.146,10.57,2.452,15.972,2.474q9.6.04,19.2.074,10.409.031,20.819.035c3.088,0,3.094-4.8,0-4.8q-19.816,0-39.633-.107c-2.722-.012-5.446.008-8.167-.033a10.24,10.24,0,0,1-9.922-7.671c-.673-2.533-.387-5.37-.424-7.971q-.512-35.767-.185-71.542c.075-9.518.183-19.036.385-28.553.115-5.453-.016-11.041.6-16.468.019-.163.145-1.122.051-.441q.069-.5.145-1,.221-1.449.5-2.891.638-3.343,1.543-6.631a49.408,49.408,0,0,1,6.058-14.2,40.947,40.947,0,0,1,12.58-11.936c2.377-1.493,5.006-2.671,7.036-4.652a15.064,15.064,0,0,0,4.1-7.249,35.833,35.833,0,0,0,.421-8.132V131.127c0-.7-.013-1.4,0-2.1.025-1.308.371-3.14,1.623-4.085a3.716,3.716,0,0,1,2.038-.382H83.773a6.808,6.808,0,0,1,2.968.287,3.305,3.305,0,0,1,1.313,1.653,8.839,8.839,0,0,1,.481,2.1c.023.715.012,1.432.012,2.147v10.091a41.188,41.188,0,0,0,.343,8.19,15.052,15.052,0,0,0,3.929,7.35c1.942,2.006,4.489,3.174,6.835,4.62a41.67,41.67,0,0,1,12.758,11.766,48.274,48.274,0,0,1,6.293,14.361q.931,3.31,1.583,6.691.264,1.358.482,2.724c.056.349.107.7.159,1.049.017.115.1.773.016.1.021.165.043.329.062.494.243,2.126.28,4.277.354,6.414.266,7.631.386,15.268.491,22.9q.474,34.536.182,69.08-.068,9-.193,18c-.037,2.613.259,5.487-.347,8.044a10.472,10.472,0,0,1-3.418,5.593,10.15,10.15,0,0,1-5.882,2.381c-2.846.165-5.736.042-8.587.053q-9.56.039-19.119.07-10.4.032-20.8.034c-3.089,0-3.094,4.8,0,4.8Z"/><path class="b" d="M80.276,151.028q-16.56-.036-33.122-.051c-3.089-.007-3.093,4.793,0,4.8q16.561.036,33.122.051c3.089.006,3.094-4.794,0-4.8Z"/><path class="b" d="M109.393,317.162H18.017c-3.088,0-3.094,4.8,0,4.8h91.376c3.089,0,3.094-4.8,0-4.8Z"/><path class="e" d="M88.128,26.4c8.485.2,16.82-.126,25.1-.673l53.4-16.409c12.3-3.856,18.68-7.919,32.3-6.645,5.934.555,25.233,8.289,33.479,11.2,19.427,6.87,21.211,8.937,34.945,9.657,1.369.064,1.906.1,2.278.119.19,2.721-9.646,53.32-14.022,52.918a183.658,183.658,0,0,0-22.628.861c-10.967.913-26.242.914-36.408-5.487-4.147-2.612-19.9-8.925-23.7-10.234-10.149-3.5-30.552-6.863-37.4-9.9-2.6-1.153-6.035-3.119-7.674-6.191l-.828-.09c-12.526-.97-24.94,3.664-37.506,3.5a77.068,77.068,0,0,1-10.543-1A16.928,16.928,0,0,1,72.8,46.24a9.59,9.59,0,0,1-4.58-7.937,5.369,5.369,0,0,1,.389-2.3,5.754,5.754,0,0,1-3.018-1.936,5.405,5.405,0,0,1-1.143-5.712,5.31,5.31,0,0,1,4.391-3.119,29.465,29.465,0,0,1,6.256.4C79.488,26.053,83.827,26.292,88.128,26.4Z"/><path class="b" d="M254.776,74.084c-7.379-.014-14.771.38-22.125.97-8.351.671-16.982.771-25.166-1.248a40.178,40.178,0,0,1-10.391-4.349,83.118,83.118,0,0,0-7.841-3.722c-5.488-2.389-11.05-4.834-16.751-6.679-7.248-2.346-14.78-3.81-22.189-5.538-3.384-.79-6.773-1.586-10.1-2.58-.669-.2-1.337-.409-2-.635-.279-.1-.557-.194-.833-.3-.13-.048-.259-.1-.389-.147-.062-.024-.58-.234-.257-.1s-.114-.051-.168-.076c-.193-.09-.387-.176-.579-.267q-.486-.231-.963-.482a20.879,20.879,0,0,1-2.1-1.259c-2.412-1.659-4.522-4.491-3.427-7.62.928-2.649,4.84-3.577,7.531-3.782a34.212,34.212,0,0,1,6.771.411c2.931.363,6.211.864,9.4,1.359,6.161.955,12.313,2.071,18.507,2.8a67.242,67.242,0,0,0,26.555-1.769c2.111-.609,4.186-1.33,6.236-2.116a2.469,2.469,0,0,0,1.677-2.952,2.419,2.419,0,0,0-2.953-1.676,66.156,66.156,0,0,1-12.779,3.608,61.267,61.267,0,0,1-13.68.549q-2.988-.18-5.96-.556l-.392-.051c.093.012.5.068.018,0l-.88-.124q-1.095-.156-2.187-.322c-3.414-.516-6.824-1.067-10.235-1.6-3.491-.549-6.983-1.093-10.485-1.57a71.5,71.5,0,0,0-7.9-.838c-3.485-.083-7.473.669-10.356,2.722a9.525,9.525,0,0,0-3.388,11.06c2.388,6.634,9.85,9.278,16.06,10.967,7.684,2.09,15.514,3.6,23.232,5.563a128.433,128.433,0,0,1,17.207,5.9c3.17,1.3,6.327,2.639,9.43,4.091,2.774,1.3,5.333,3.006,8.124,4.25,15.359,6.851,32.625,3.553,48.817,3.025,2.3-.075,4.6-.12,6.9-.115,3.088.006,3.093-4.794,0-4.8Z"/><path class="b" d="M126.965,43.127c-10.477-.754-20.65,2.234-31,3.207a65.223,65.223,0,0,1-15.693-.521c-2.2-.324-4.669-.567-6.564-1.836a7.172,7.172,0,0,1-2.942-4.471,3.948,3.948,0,0,1,.041-2.56c.328-.517,1.056-.571,1.611-.632,2.483-.27,5.01-.235,7.5-.475a117.208,117.208,0,0,0,15.984-2.7c10.575-2.524,20.929-6.016,31.316-9.208l31.947-9.816c4.834-1.485,9.672-2.939,14.44-4.629a103.593,103.593,0,0,1,11.7-3.708,42.519,42.519,0,0,1,12.687-.793c.411.032.823.067,1.233.112-.719-.078,0,.008.185.041.593.106,1.181.239,1.766.382,1.355.332,2.694.725,4.026,1.137,6.877,2.128,13.608,4.726,20.349,7.243,6.957,2.6,13.941,5.122,20.906,7.7a64.75,64.75,0,0,0,15.98,3.963c1.635.168,3.276.279,4.917.367,3.087.165,3.078-4.635,0-4.8a57.6,57.6,0,0,1-16.638-3.084c-7.148-2.479-14.233-5.191-21.328-7.818-6.919-2.562-13.8-5.234-20.818-7.528A55.45,55.45,0,0,0,200.427.468,43.189,43.189,0,0,0,187.2.56a64.793,64.793,0,0,0-12,3.283c-4.71,1.663-9.431,3.227-14.206,4.694L127.847,18.72c-10.718,3.293-21.4,6.9-32.294,9.569A109.462,109.462,0,0,1,79.2,31.106c-2.483.222-5,.18-7.475.484-2.51.31-4.734,1.54-5.548,4.08-1.469,4.582,1.246,9.962,5.107,12.452a17.593,17.593,0,0,0,7,2.212c2.829.434,5.676.81,8.534.988,10.916.679,21.47-2.56,32.278-3.361a54.187,54.187,0,0,1,7.875-.034,2.421,2.421,0,0,0,2.4-2.4,2.447,2.447,0,0,0-2.4-2.4Z"/><path class="b" d="M113.227,23.322a271.177,271.177,0,0,1-27.567.6c-4.589-.166-9.128-.594-13.693-1.049-3.768-.375-7.839.54-9.589,4.277-2.088,4.46.853,9.715,5.381,11.121,2.956.918,4.221-3.714,1.276-4.629a3.775,3.775,0,0,1-2.571-3.53,2.855,2.855,0,0,1,2.673-2.5c1.948-.275,4.024.233,5.96.428,2.619.265,5.249.436,7.877.568a261.688,261.688,0,0,0,30.253-.482,2.456,2.456,0,0,0,2.4-2.4,2.421,2.421,0,0,0-2.4-2.4Z"/><path class="e" d="M291.762,266.321c-11.263-1.229-26.011.563-37.06,3.426-14.731,3.818-28.3,9.055-43.038,12.84-5.5,1.412-11.807,2.348-17.131.381-4.619-1.707-8.308-4.709-11.958-8.014-5.747-5.2-24.635-18.271-30.887-22.855l-.285-.218c-.89-.052-1.655-.11-2.273-.172-2.906-.3-12.448-2.26-12.661-11.249-7.267-5.42-16.1-12.415-22.424-18.828q-6.759-7.6-13.339-15.357c-4.059-4.784-8.886-10.28-8.573-14.666,0,0,.051-.715.1-1.43l-.118-.106c-2.112-1.907-3.815-4.265-3.507-6.919a5.456,5.456,0,0,1,3.587-4.383c9.916-3.654,18.415.963,26.2,6.633,4.639-5.151,13.977-1.151,19.034,1.121,11.627,5.224,20.269,12.287,30.306,19.679a2.338,2.338,0,0,0,.5.282c11.113,4.579,26.947,7.1,40.442,8.5l.244.044c2.752-1.921,5.475-3.918,7.092-5.078,10.989-7.886,18.425-10.444,23.493-11.5,6.624-1.375,21.08-.259,31.842,1.983,7,1.459,13.974,6,24.416,8.4l2.151.508-3.861,57.194Z"/><path class="b" d="M296.4,206.525a107.248,107.248,0,0,1-16-5.587,60.046,60.046,0,0,0-6.588-2.368,66.636,66.636,0,0,0-7.6-1.489,131.582,131.582,0,0,0-16.563-1.595,45.631,45.631,0,0,0-12.339,1.009c-8.874,2.214-16.769,7.224-24.095,12.525-3.665,2.652-7.319,5.383-11.211,7.7a52.252,52.252,0,0,1-15.114,5.6,93.131,93.131,0,0,1-13.013,1.551c-4.033.333-8.074.759-12.12.9a40.577,40.577,0,0,0-15.486,3.361c-4.08,1.816-8.331,4.46-10.85,8.25-2.293,3.45-1.385,8.118.994,11.307a16.487,16.487,0,0,0,9.153,5.784,33.884,33.884,0,0,0,7.1.875c3.453.168,6.912.242,10.368.307,7.979.149,15.96.191,23.941.247,7.832.054,15.71.057,23.507.865a47.317,47.317,0,0,1,7.675,1.372c2.983.82,4.256-3.809,1.276-4.629-5.495-1.511-11.309-1.85-16.978-2.089-3.379-.142-6.76-.241-10.141-.276-7.094-.074-14.188-.093-21.282-.174-6.827-.077-13.691-.068-20.5-.546-.47-.033-.939-.076-1.408-.117-.078-.007-.155-.019-.233-.026-.482-.047.616.123.1.013-.287-.061-.581-.1-.87-.153q-.9-.179-1.777-.436c-.346-.1-.689-.212-1.029-.333-.177-.063-.353-.131-.529-.2a1.6,1.6,0,0,1-.39-.167,10.381,10.381,0,0,1-3.721-2.63,7.539,7.539,0,0,1-1.783-4.191c-.023-.228.058-1.39-.07-.717a4.76,4.76,0,0,1,.264-.907c-.192.475.262-.428.349-.566a4.159,4.159,0,0,1,.577-.786,20.461,20.461,0,0,1,4.621-3.8,31.971,31.971,0,0,1,14.225-4.743c7.728-.575,15.542-.694,23.24-1.667a65.047,65.047,0,0,0,17.012-4.567,61.205,61.205,0,0,0,11.524-6.692c7.551-5.3,15.028-11.16,23.68-14.308a33.205,33.205,0,0,1,9.194-2.072,90.452,90.452,0,0,1,14.771.5,79.734,79.734,0,0,1,15.014,2.559c4.629,1.4,9,3.565,13.532,5.231a71.054,71.054,0,0,0,8.29,2.5c3,.7,4.287-3.923,1.276-4.629Z"/><path class="b" d="M291.762,263.921c-10.671-1.129-21.692.083-32.163,2.233-11.663,2.393-22.942,6.468-34.289,10a178.726,178.726,0,0,1-17.236,4.8c-5.417,1.106-10.781,1.1-15.724-1.619-3.793-2.087-6.8-5.108-10.118-7.819-2.893-2.361-5.894-4.592-8.9-6.8-6.757-4.971-13.664-9.733-20.431-14.69a2.418,2.418,0,0,0-3.284.861,2.455,2.455,0,0,0,.861,3.284c5.976,4.377,12.068,8.594,18.057,12.952,3.072,2.236,6.28,4.59,9.1,6.82,3.219,2.551,6.138,5.458,9.517,7.807a24.928,24.928,0,0,0,15.886,4.695c6.012-.336,11.883-2.167,17.624-3.858,11.829-3.485,23.449-7.706,35.417-10.713,11.506-2.891,23.846-4.406,35.688-3.153a2.415,2.415,0,0,0,2.4-2.4,2.454,2.454,0,0,0-2.4-2.4Z"/><path class="b" d="M136.9,237.8c-3.875-2.909-7.692-5.894-11.407-9a97.613,97.613,0,0,1-10.555-9.769q-5.382-6.071-10.651-12.239c-3.043-3.563-6.453-7.09-8.669-11.256a10.425,10.425,0,0,1-.954-2.394,4.553,4.553,0,0,1-.143-.927c-.02-.384-.1-.256.116-.6.984-1.6,2.958-1.188,4.563-1a17.633,17.633,0,0,1,5.645,2.121,48.073,48.073,0,0,1,5.06,2.924c6.481,4.305,11.421,10.4,17.154,15.569a110.5,110.5,0,0,0,25.148,17.241,2.461,2.461,0,0,0,3.283-.861,2.421,2.421,0,0,0-.861-3.283,106.319,106.319,0,0,1-23.794-16.149c-6.3-5.615-11.668-12.193-18.79-16.848-3.7-2.421-8.076-4.945-12.52-5.475-2.669-.318-5.205-.348-7.379,1.433a6.186,6.186,0,0,0-2.376,5.545c.511,4.807,4.016,8.9,6.984,12.472,3.633,4.372,7.364,8.665,11.108,12.942,2.028,2.316,4.015,4.671,6.232,6.809,2.089,2.015,4.255,3.948,6.46,5.833,4.507,3.852,9.183,7.5,13.923,11.062a2.416,2.416,0,0,0,3.284-.861,2.459,2.459,0,0,0-.861-3.284Z"/><path class="b" d="M93.815,188.376c-1.937-1.786-4.636-5.511-1.054-7.247,3.273-1.587,7.505-1.567,10.965-.718,7.924,1.944,14.465,7.8,20.8,12.624q10.943,8.346,21.887,16.689c4.387,3.33,8.633,6.9,13.785,8.949a138.22,138.22,0,0,0,24.487,7.173,2.463,2.463,0,0,0,2.953-1.676,2.423,2.423,0,0,0-1.677-2.952,141.547,141.547,0,0,1-23.653-6.847q-.844-.326-1.682-.671c-.265-.11.072.03.1.044-.113-.049-.227-.1-.339-.148-.215-.1-.431-.191-.643-.3a20.722,20.722,0,0,1-2.629-1.624c-3.14-2.159-6.167-4.486-9.2-6.793q-11.771-8.956-23.522-17.939c-6.817-5.2-13.942-10.741-22.744-11.74a22.172,22.172,0,0,0-7.33.435c-2.353.527-4.765,1.351-6.344,3.271-3.545,4.308-1.167,9.528,2.445,12.859,2.268,2.092,5.671-1.294,3.394-3.394Z"/><path class="b" d="M120.088,187.1c3.37-3.58,9.547-1.215,13.465.351a92.708,92.708,0,0,1,16.822,9.095c2.85,1.9,5.626,3.912,8.379,5.95q1.926,1.425,3.842,2.862a44.5,44.5,0,0,0,4.168,3.074,25.472,25.472,0,0,0,4.335,1.693c1.5.52,3.006.994,4.526,1.433,3.234.933,6.513,1.708,9.81,2.385,7.673,1.574,15.452,2.628,23.24,3.442a2.416,2.416,0,0,0,2.4-2.4,2.454,2.454,0,0,0-2.4-2.4c-6.934-.725-13.848-1.666-20.69-3.015-3.46-.682-6.9-1.467-10.3-2.418q-2.118-.594-4.208-1.281a25.661,25.661,0,0,1-4.291-1.583,39.337,39.337,0,0,1-4.168-3.074q-2.265-1.692-4.535-3.376c-2.756-2.031-5.538-4.027-8.4-5.909A95.623,95.623,0,0,0,134.53,182.7c-5.6-2.2-13.149-3.977-17.836,1-2.116,2.249,1.272,5.649,3.394,3.394Z"/></svg>