<?xml version="1.0" encoding="iso-8859-1"?>
<!-- Uploaded to: SVG Repo, www.svgrepo.com, Generator: SVG Repo Mixer Tools -->
<svg height="800px" width="800px" version="1.1" id="Layer_1" xmlns="http://www.w3.org/2000/svg" xmlns:xlink="http://www.w3.org/1999/xlink" 
	 viewBox="0 0 512.001 512.001" xml:space="preserve">
<g>
	<path style="fill:#D33D3D;" d="M277.365,423.585h-73.276h-0.866c-11.7,0-21.188,9.486-21.188,21.183v0.211
		c0,11.698,9.488,21.186,21.188,21.186h113.586L277.365,423.585z"/>
	<path style="fill:#D33D3D;" d="M448.236,423.585h-48.558l-39.442,42.58h88c11.702,0,21.186-9.488,21.186-21.186v-0.211
		C469.422,433.071,459.939,423.585,448.236,423.585z"/>
</g>
<path style="fill:#EFAC52;" d="M466.842,471.67v-1.798c0-3.079-2.495-5.575-5.575-5.575h-98.935c-1.553,0-3.034,0.649-4.09,1.787
	l-19.721,21.288l-19.723-21.288c-1.054-1.138-2.536-1.787-4.09-1.787H187.39c-1.487,0-2.912,0.594-3.959,1.65
	c-1.047,1.056-1.629,2.484-1.616,3.972l0.023,2.454l-0.021,0.553c-0.003,0.071-0.003,0.144-0.003,0.215l0.02,8.851
	c0,0.057,0,0.162,0.002,0.22l-0.022,0.969c0,0.039,0,0.078,0,0.116v9.753c0,9.22,4.794,16.719,10.688,16.719h263.649
	c5.895,0,10.69-7.5,10.69-16.733l-0.027-10.801l0.023-0.612c0.002-0.074,0.004-0.148,0.004-0.222l-0.027-8.917l0.023-0.605
	C466.84,471.812,466.842,471.739,466.842,471.67z"/>
<path style="fill:#DCE0E2;" d="M181.815,254.224c0-1.003-0.043-2.067-0.116-3.164c-0.007-0.098-0.011-0.19-0.018-0.29
	c-0.022-0.316-0.057-0.644-0.085-0.969c-0.026-0.304-0.05-0.605-0.08-0.916c-0.016-0.148-0.037-0.299-0.052-0.446
	c-1.962-17.806-12.125-44.327-25.78-49.833c-0.213-0.094-0.427-0.172-0.64-0.256c-0.035-0.011-0.07-0.028-0.105-0.041
	L143.266,33.206h-2.344H83.47h-2.344L69.453,198.307c-0.035,0.013-0.068,0.03-0.103,0.041c-0.215,0.085-0.429,0.163-0.64,0.256
	c-13.658,5.507-23.82,32.028-25.78,49.833c-0.018,0.148-0.037,0.299-0.052,0.446c-0.032,0.311-0.056,0.612-0.083,0.916
	c-0.028,0.324-0.061,0.653-0.085,0.969c-0.007,0.1-0.009,0.192-0.016,0.29c-0.074,1.097-0.116,2.161-0.116,3.164v74.096
	c0,0.002,0,0.002,0,0.002v143.896c0,15.358,8.713,28.677,21.458,35.307c-0.002,0-0.002,0-0.002,0
	c0.022,0.013,0.046,0.022,0.068,0.032c0.635,0.329,1.28,0.64,1.933,0.937c0.055,0.023,0.109,0.048,0.163,0.071
	c0.679,0.304,1.368,0.59,2.067,0.856c0.009,0.002,0.016,0.007,0.023,0.009c1.437,0.544,2.913,1.008,4.425,1.385
	c0.089,0.025,0.181,0.041,0.272,0.064c0.619,0.151,1.241,0.285,1.869,0.405c0.21,0.039,0.418,0.074,0.625,0.111
	c0.525,0.091,1.049,0.172,1.58,0.244c0.245,0.032,0.491,0.066,0.737,0.094c0.525,0.061,1.054,0.107,1.585,0.146
	c0.232,0.018,0.464,0.039,0.697,0.052c0.747,0.043,1.501,0.07,2.258,0.07c0.007,0,0.013,0,0.02,0h0.004h59.67h0.004
	c0.007,0,0.014,0,0.022,0c0.758,0,1.508-0.026,2.255-0.07c0.235-0.013,0.466-0.035,0.699-0.052c0.53-0.039,1.058-0.085,1.583-0.146
	c0.246-0.028,0.492-0.061,0.738-0.094c0.53-0.071,1.056-0.153,1.579-0.244c0.21-0.037,0.418-0.071,0.625-0.111
	c0.629-0.119,1.252-0.255,1.869-0.405c0.091-0.022,0.183-0.039,0.274-0.064c1.511-0.377,2.986-0.841,4.425-1.385
	c0.007-0.002,0.016-0.007,0.022-0.009c0.699-0.265,1.387-0.551,2.068-0.856c0.052-0.025,0.107-0.048,0.162-0.071
	c0.656-0.297,1.3-0.608,1.933-0.937c0.023-0.011,0.046-0.02,0.068-0.032l0,0c12.746-6.63,21.455-19.949,21.455-35.307V328.322
	c0,0,0.002,0,0.002-0.002v-74.096H181.815z"/>
<path style="fill:#E95353;" d="M131.141,0H91.548c-7.576,0-13.74,6.164-13.74,13.74v16.678c0,1.54,1.248,2.787,2.787,2.787h61.496
	c1.54,0,2.787-1.248,2.787-2.787V13.74C144.879,6.164,138.717,0,131.141,0z"/>
<path style="opacity:0.15;fill:#202020;enable-background:new    ;" d="M110.502,0H91.548c-7.576,0-13.74,6.164-13.74,13.74v16.678
	c0,1.54,1.248,2.787,2.787,2.787h16.166V13.74C96.762,6.152,102.914,0,110.502,0z"/>
<polygon style="fill:#E95353;" points="181.813,254.224 97.111,254.224 68.123,254.224 42.579,254.224 42.579,254.224 
	42.579,328.32 42.579,328.322 42.579,472.219 54.818,472.219 169.576,472.219 181.813,472.219 181.813,328.322 181.815,328.32 
	181.815,254.224 "/>
<polygon style="fill:#EBECED;" points="148.386,105.601 143.266,33.206 140.922,33.206 83.47,33.206 81.127,33.206 76.008,105.601 
	"/>
<path style="fill:#FCAF29;" d="M404.787,422.47c-0.889-2.031-2.894-3.345-5.109-3.345H277.365c-2.214,0-4.22,1.313-5.109,3.345
	c-0.886,2.029-0.486,4.392,1.019,6.018l61.158,66.017c1.054,1.138,2.536,1.786,4.09,1.786c1.552,0,3.034-0.647,4.09-1.786
	l61.158-66.017C405.273,426.862,405.673,424.499,404.787,422.47z"/>
<path style="fill:#FEE298;" d="M387.083,286.825c-4.619,0-8.362-3.743-8.362-8.362V277.2c0-4.619,3.743-8.362,8.362-8.362
	c4.618,0,8.362,3.743,8.362,8.362v1.263C395.445,283.081,391.701,286.825,387.083,286.825z"/>
<path style="opacity:0.15;fill:#202020;enable-background:new    ;" d="M200.803,444.979v-0.211
	c0-11.698,9.486-21.183,21.188-21.183h-17.902h-0.866c-11.7,0-21.188,9.486-21.188,21.183v0.211
	c0,11.698,9.488,21.186,21.188,21.186h18.768C210.289,466.165,200.803,456.677,200.803,444.979z"/>
<g style="opacity:0.15;">
	<path style="fill:#202020;" d="M200.582,493.051v-9.753c0-0.037,0-0.076,0.001-0.116l0.02-0.969c-0.002-0.059,0-0.163-0.001-0.22
		l-0.021-8.851c0-0.072,0.001-0.144,0.004-0.215l0.02-0.553l-0.023-2.454c-0.012-1.487,0.571-2.915,1.616-3.972
		c1.047-1.056,2.473-1.65,3.959-1.65H187.39c-1.487,0-2.912,0.594-3.959,1.65c-1.047,1.056-1.629,2.484-1.616,3.972l0.023,2.454
		l-0.021,0.553c-0.003,0.071-0.003,0.144-0.003,0.215l0.02,8.851c0,0.057,0,0.162,0.002,0.22l-0.022,0.969c0,0.039,0,0.078,0,0.116
		v9.753c0,9.22,4.794,16.719,10.688,16.719h18.766C205.377,509.77,200.582,502.271,200.582,493.051z"/>
</g>
<path style="opacity:0.15;fill:#202020;enable-background:new    ;" d="M292.044,428.488c-1.507-1.627-1.906-3.989-1.019-6.018
	c0.886-2.031,2.892-3.345,5.109-3.345h-18.768c-2.214,0-4.22,1.313-5.109,3.345c-0.886,2.029-0.486,4.392,1.019,6.018l61.158,66.017
	c1.054,1.138,2.536,1.786,4.09,1.786c1.552,0,3.034-0.647,4.09-1.786l5.294-5.716L292.044,428.488z"/>
<path style="fill:#8C5549;" d="M459.141,412.436c0,7.391-5.989,13.379-13.379,13.379H206.563c-7.389,0-13.379-5.988-13.379-13.379
	v-24.128c0-7.389,5.99-13.379,13.379-13.379h239.199c7.39,0,13.379,5.99,13.379,13.379L459.141,412.436L459.141,412.436z"/>
<g>
	<path style="opacity:0.15;fill:#202020;enable-background:new    ;" d="M211.953,412.436v-24.128
		c0-7.389,5.989-13.379,13.379-13.379h-18.768c-7.389,0-13.379,5.99-13.379,13.379v24.128c0,7.391,5.99,13.379,13.379,13.379h18.768
		C217.943,425.815,211.953,419.827,211.953,412.436z"/>
	<path style="opacity:0.15;fill:#202020;enable-background:new    ;" d="M100.614,33.206h-3.852H81.127l-5.12,72.396h0.001
		l-6.556,92.705c-0.035,0.013-0.068,0.03-0.103,0.041c-0.215,0.085-0.429,0.163-0.64,0.256c-13.658,5.507-23.82,32.028-25.78,49.833
		c-0.018,0.148-0.037,0.299-0.052,0.446c-0.032,0.311-0.056,0.612-0.083,0.916c-0.028,0.324-0.061,0.653-0.085,0.969
		c-0.007,0.1-0.009,0.192-0.016,0.29c-0.074,1.097-0.116,2.161-0.116,3.164v74.096c0,0.002,0,0.002,0,0.002v143.896
		c0,15.358,8.713,28.677,21.458,35.307c-0.002,0-0.002,0-0.002,0c0.022,0.013,0.046,0.022,0.068,0.032
		c0.635,0.329,1.28,0.64,1.933,0.937c0.055,0.023,0.109,0.048,0.163,0.071c0.679,0.304,1.368,0.59,2.067,0.856
		c0.009,0.002,0.016,0.007,0.023,0.009c1.437,0.544,2.913,1.008,4.425,1.385c0.089,0.025,0.181,0.041,0.272,0.064
		c0.619,0.151,1.241,0.285,1.869,0.405c0.21,0.039,0.418,0.074,0.625,0.111c0.525,0.091,1.049,0.172,1.58,0.244
		c0.245,0.032,0.491,0.066,0.737,0.094c0.525,0.061,1.054,0.107,1.585,0.146c0.055,0.004,0.108,0.007,0.163,0.013
		c-10.837-7.108-18.011-19.337-18.011-33.262V334.733c0,0,0,0,0-0.002v-74.096c0-1.003,0.041-2.067,0.116-3.164
		c0.007-0.098,0.009-0.19,0.016-0.29c0.025-0.316,0.057-0.644,0.085-0.969c0.027-0.304,0.05-0.605,0.083-0.916
		c0.016-0.148,0.035-0.299,0.052-0.446c1.96-17.806,12.122-44.327,25.78-49.833c0.211-0.094,0.425-0.172,0.64-0.256
		c0.035-0.011,0.068-0.028,0.103-0.041l6.556-92.705h-0.001l5.12-72.396L100.614,33.206z"/>
</g>
<path style="fill:#EFAC52;" d="M465.241,347.15c-10.117-58.827-54.901-103.162-108.611-103.162h-64.608
	c-53.548,0-98.224,44.066-108.517,102.62c0,0-4.775,29.436,13.201,29.436h260.093C461.781,374.881,468.394,369.354,465.241,347.15z"
	/>
<g>
	<path style="fill:#FEE298;" d="M265.244,287.94c-4.619,0-8.362-3.743-8.362-8.362v-1.263c0-4.619,3.743-8.362,8.362-8.362
		c4.618,0,8.362,3.743,8.362,8.362v1.263C273.606,284.196,269.862,287.94,265.244,287.94z"/>
	<path style="fill:#FEE298;" d="M305.858,287.94c-4.619,0-8.362-3.743-8.362-8.362v-1.263c0-4.619,3.743-8.362,8.362-8.362
		c4.618,0,8.362,3.743,8.362,8.362v1.263C314.22,284.196,310.476,287.94,305.858,287.94z"/>
	<path style="fill:#FEE298;" d="M346.47,287.94c-4.619,0-8.362-3.743-8.362-8.362v-1.263c0-4.619,3.743-8.362,8.362-8.362
		c4.618,0,8.362,3.743,8.362,8.362v1.263C354.832,284.196,351.087,287.94,346.47,287.94z"/>
	<path style="fill:#FEE298;" d="M285.55,318.868c-4.618,0-8.362-3.743-8.362-8.362v-1.261c0-4.619,3.744-8.362,8.362-8.362
		c4.619,0,8.362,3.743,8.362,8.362v1.261C293.912,315.125,290.169,318.868,285.55,318.868z"/>
	<path style="fill:#FEE298;" d="M326.162,318.868c-4.618,0-8.362-3.743-8.362-8.362v-1.261c0-4.619,3.744-8.362,8.362-8.362
		c4.619,0,8.362,3.743,8.362,8.362v1.261C334.524,315.125,330.78,318.868,326.162,318.868z"/>
	<path style="fill:#FEE298;" d="M366.776,318.868c-4.618,0-8.362-3.743-8.362-8.362v-1.261c0-4.619,3.744-8.362,8.362-8.362
		c4.619,0,8.362,3.743,8.362,8.362v1.261C375.138,315.125,371.394,318.868,366.776,318.868z"/>
</g>
<path style="opacity:0.15;fill:#202020;enable-background:new    ;" d="M202.272,346.608
	c10.293-58.555,54.971-102.62,108.517-102.62h-18.766c-53.548,0-98.224,44.066-108.517,102.62c0,0-4.775,29.436,13.201,29.436
	h18.766C197.499,376.044,202.272,346.608,202.272,346.608z"/>
</svg>