<svg width="64" height="64" viewBox="0 0 64 64" fill="none" xmlns="http://www.w3.org/2000/svg"><path d="M36.8222 14.9124C36.8222 16.1183 36.7957 17.3404 36.7428 17.9077C36.6452 18.9631 36.0657 19.9411 35.051 20.3356C34.1482 20.6834 33.1924 20.5247 32.3547 20.0855C31.5169 19.6463 30.5571 18.3978 29.9755 17.2895C28.8612 17.2895 28.06 16.4538 27.9421 15.376C27.9137 15.1874 27.9236 14.9949 27.9711 14.8101C28.0186 14.6253 28.1028 14.452 28.2186 14.3004" stroke="#404040" stroke-width="0.8" stroke-linecap="round" stroke-linejoin="round"></path><path d="M36.8242 11.8926C36.8242 12.1773 36.8242 12.8666 36.8242 13.6922" stroke="#404040" stroke-width="0.8" stroke-linecap="round" stroke-linejoin="round"></path><path d="M28.2023 14.2493C28.0355 13.1126 27.9216 11.9719 27.8078 10.8291C27.7674 10.4214 27.8397 10.0105 28.0168 9.64121C28.194 9.27187 28.4691 8.95827 28.8123 8.7346C29.1957 8.49238 29.6324 8.34726 30.0845 8.31183C30.5366 8.2764 30.9905 8.35171 31.407 8.53126C31.7527 7.69958 32.3586 6.9777 33.3062 6.98787C34.2152 6.98787 34.8191 7.50843 35.1851 8.32385C35.4411 8.21524 35.7166 8.16029 35.9947 8.16239C36.2728 8.16449 36.5474 8.22359 36.8017 8.33605C37.075 8.47818 37.3055 8.6907 37.4692 8.95165C37.6329 9.21261 37.724 9.51254 37.733 9.82047C37.7961 10.5728 37.245 11.313 36.879 11.9454V11.917C36.6847 11.8838 36.4995 11.8106 36.335 11.7021C36.1705 11.5936 36.0303 11.4521 35.9233 11.2866L35.8887 11.2479C35.5059 11.6149 34.9956 11.819 34.4653 11.8173C33.9314 11.834 33.4115 11.6447 33.0134 11.2886C32.9176 11.5372 32.7697 11.7624 32.5796 11.949C32.3895 12.1356 32.1616 12.2793 31.9113 12.3704C31.4087 12.5506 30.8689 12.6017 30.3415 12.5189L30.2805 12.5555V14.8573C30.1137 14.2473 29.4671 13.7206 28.8184 13.9138C28.5847 13.9794 28.3763 14.1141 28.2206 14.3002" fill="#404040"></path><path d="M28.2023 14.2493C28.0355 13.1126 27.9216 11.9719 27.8078 10.8291C27.7674 10.4214 27.8397 10.0105 28.0168 9.64121C28.194 9.27187 28.4691 8.95827 28.8123 8.7346C29.1957 8.49238 29.6324 8.34726 30.0845 8.31183C30.5366 8.2764 30.9905 8.35171 31.407 8.53126C31.7527 7.69958 32.3586 6.9777 33.3062 6.98787C34.2152 6.98787 34.8191 7.50843 35.1851 8.32385C35.4411 8.21524 35.7166 8.16029 35.9947 8.16239C36.2728 8.16449 36.5474 8.22359 36.8017 8.33605C37.075 8.47818 37.3055 8.6907 37.4692 8.95165C37.6329 9.21261 37.724 9.51254 37.733 9.82047C37.7961 10.5728 37.245 11.313 36.879 11.9454V11.917C36.6847 11.8838 36.4995 11.8106 36.335 11.7021C36.1705 11.5936 36.0303 11.4521 35.9233 11.2866L35.8887 11.2479C35.5059 11.6149 34.9956 11.819 34.4653 11.8173C33.9314 11.834 33.4115 11.6447 33.0134 11.2886C32.9176 11.5372 32.7697 11.7624 32.5796 11.949C32.3895 12.1356 32.1616 12.2793 31.9113 12.3704C31.4087 12.5506 30.8689 12.6017 30.3415 12.5189L30.2805 12.5555V14.8573C30.1137 14.2473 29.4671 13.7206 28.8184 13.9138C28.5847 13.9794 28.3763 14.1141 28.2206 14.3002" stroke="#404040" stroke-width="0.8" stroke-linecap="round" stroke-linejoin="round"></path><path d="M33.0867 15.6096C33.7661 15.6096 34.3169 15.0588 34.3169 14.3794C34.3169 13.7 33.7661 13.1492 33.0867 13.1492C32.4072 13.1492 31.8564 13.7 31.8564 14.3794C31.8564 15.0588 32.4072 15.6096 33.0867 15.6096Z" stroke="#404040" stroke-width="0.8" stroke-linecap="round" stroke-linejoin="round"></path><path d="M36.9846 14.3005C36.9846 14.5438 36.9125 14.7817 36.7773 14.984C36.6421 15.1863 36.45 15.344 36.2252 15.4371C36.0004 15.5302 35.753 15.5546 35.5144 15.5071C35.2758 15.4596 35.0565 15.3424 34.8845 15.1704C34.7124 14.9983 34.5953 14.7791 34.5478 14.5405C34.5003 14.3019 34.5247 14.0545 34.6178 13.8297C34.7109 13.6049 34.8686 13.4128 35.0709 13.2776C35.2732 13.1424 35.5111 13.0702 35.7544 13.0702C35.9163 13.0689 36.0769 13.0998 36.2268 13.1611C36.3767 13.2225 36.5128 13.313 36.6273 13.4276C36.7418 13.5421 36.8324 13.6782 36.8938 13.8281C36.9551 13.978 36.986 14.1386 36.9846 14.3005Z" stroke="#404040" stroke-width="0.8" stroke-linecap="round" stroke-linejoin="round"></path><path d="M35.051 20.3355L35.053 21.8768L33.0887 25.8827L29.7864 21.4803V17.4134" stroke="#404040" stroke-width="0.8" stroke-linecap="round" stroke-linejoin="round"></path><path d="M27.7955 39.5395C26.7361 40.3834 25.2354 41.5262 24.117 42.2948C23.1857 42.9333 22.3723 43.5271 21.1868 43.4112C19.3058 43.2302 18.2017 41.3472 18.1366 39.6025C18.0776 37.809 20.3917 31.7981 20.8716 30.4805C21.5304 28.9127 21.9717 26.869 23.1613 25.6124C24.0336 24.7055 25.2781 23.949 26.3721 23.3512L29.7883 21.4784" stroke="#404040" stroke-width="0.8" stroke-linecap="round" stroke-linejoin="round"></path><path d="M29.4934 34.9601C29.7927 35.2725 29.9959 35.6642 30.0791 36.0887C30.3414 37.4267 29.7192 39.1389 28.2734 39.4744C26.8276 39.8099 25.1947 38.8461 25.0199 37.3332C24.9712 36.7859 25.0735 36.2358 25.3154 35.7425C25.5574 35.2492 25.9299 34.8317 26.3924 34.5352C26.8795 34.2389 27.4537 34.1195 28.0184 34.1969C28.5832 34.2743 29.1041 34.5438 29.4934 34.9601Z" stroke="#404040" stroke-width="0.8" stroke-linecap="round" stroke-linejoin="round"></path><path d="M19.7146 39.0007L25.6828 35.1839" stroke="#404040" stroke-width="0.8" stroke-linecap="round" stroke-linejoin="round"></path><path d="M28.2306 34.2404C27.9211 34.1639 27.5993 34.1512 27.2847 34.2029C26.9701 34.2546 26.6693 34.3698 26.4005 34.5413L26.3721 23.3512L28.2327 22.3345V34.1753" fill="#404040"></path><path d="M28.2306 34.2404C27.9211 34.1639 27.5993 34.1512 27.2847 34.2029C26.9701 34.2546 26.6693 34.3698 26.4005 34.5413L26.3721 23.3512L28.2327 22.3345V34.1753" stroke="#404040" stroke-width="0.8" stroke-linecap="round" stroke-linejoin="round"></path><path d="M27.7956 39.5396C26.7362 40.3835 25.2355 41.5263 24.1171 42.2949C23.1858 42.9334 22.3724 43.5272 21.1869 43.4113C19.306 43.2303 18.2018 41.3473 18.1367 39.6026V58.1477H32.4095V39.5416H27.9075" fill="#404040"></path><path d="M27.7956 39.5396C26.7362 40.3835 25.2355 41.5263 24.1171 42.2949C23.1858 42.9334 22.3724 43.5272 21.1869 43.4113C19.306 43.2303 18.2018 41.3473 18.1367 39.6026V58.1477H32.4095V39.5416H27.9075" stroke="#404040" stroke-width="0.8" stroke-linecap="round" stroke-linejoin="round"></path><path d="M31.8564 49.0497H39.9191L39.3375 28.3634" stroke="#404040" stroke-width="0.8" stroke-linecap="round" stroke-linejoin="round"></path><path d="M47.9064 52.8035C47.4692 50.9592 44.0896 35.568 42.2961 29.9007C41.7247 28.095 40.95 26.208 39.4493 24.9778C38.05 23.8562 36.5839 22.8207 35.0591 21.8767" stroke="#404040" stroke-width="0.8" stroke-linecap="round" stroke-linejoin="round"></path><path d="M47.9064 52.8036H41.8223" stroke="#404040" stroke-width="0.8" stroke-linecap="round" stroke-linejoin="round"></path><path d="M18.3624 38.1059L15.1089 28.7256C14.9379 28.2341 14.9693 27.6947 15.196 27.2262C15.4227 26.7577 15.8262 26.3985 16.3178 26.2275C16.8094 26.0566 17.3487 26.0879 17.8172 26.3146C18.2857 26.5413 18.6449 26.9449 18.8159 27.4364L20.3593 31.8917" stroke="#404040" stroke-width="0.8" stroke-linecap="round" stroke-linejoin="round"></path><path d="M38.1743 49.0499L41.8223 59.6544" stroke="#404040" stroke-width="0.8" stroke-linecap="round" stroke-linejoin="round"></path><path d="M43.5813 52.8219C43.3625 53.3097 43.2699 53.8449 43.3122 54.3779C43.3545 54.9109 43.5303 55.4248 43.8233 55.872C44.0085 56.1557 44.2508 56.3977 44.5348 56.5826C44.8187 56.7675 45.138 56.8913 45.4724 56.946C45.8068 57.0007 46.1489 56.9852 46.4769 56.9004C46.805 56.8156 47.1118 56.6635 47.3778 56.4536C48.3477 55.7094 48.3945 53.8793 47.8739 52.8585" stroke="#404040" stroke-width="0.8" stroke-linecap="round" stroke-linejoin="round"></path><path d="M41.8223 59.6544L43.3047 54.5159" stroke="#404040" stroke-width="0.8" stroke-linecap="round" stroke-linejoin="round"></path><path d="M47.7073 56.1122L48.8114 59.5711" stroke="#404040" stroke-width="0.8" stroke-linecap="round" stroke-linejoin="round"></path></svg>