<svg width="64" height="64" viewBox="0 0 64 64" fill="none" xmlns="http://www.w3.org/2000/svg"><path d="M25.6101 13.6239C26.9108 16.5293 28.9943 21.6786 32.623 19.9176C33.3219 19.5659 33.8858 18.994 34.2278 18.2902" stroke="#404040" stroke-width="0.8" stroke-linecap="round" stroke-linejoin="round"></path><path d="M25.6101 13.6239C25.4199 13.175 25.318 12.6936 25.3101 12.2062C25.2218 10.5397 26.0868 9.04593 27.4245 8.05759C29.0334 6.86788 31.4313 6.66857 33.2333 7.52746C35.4011 8.56512 35.9682 11.2918 36.8148 13.3465L36.7572 13.2746C37.1189 14.0965 37.4147 14.9184 37.7127 15.7403C37.9058 16.2766 38.5058 16.4698 38.7544 16.9588C39.0236 17.4889 38.7277 18.0951 38.8428 18.6478C38.9579 19.2006 39.5065 19.3999 39.8702 19.7553C40.5133 20.3718 40.0962 20.8896 39.9524 21.6252C39.8414 22.1943 40.4044 22.5087 40.7373 22.858C40.9597 23.1066 41.099 23.4183 41.1359 23.7498C41.1727 24.0813 41.1052 24.416 40.9428 24.7073C40.5811 25.408 39.5044 25.3237 38.9312 24.9744C38.3579 24.6251 38.249 23.758 38.3414 23.1457C38.3969 22.7882 38.4524 22.6505 38.1771 22.3423C37.9593 22.0978 37.4394 21.8841 37.3264 21.5697C37.1024 20.9348 37.8236 20.2649 37.2647 19.6053C36.9648 19.2519 36.3175 19.2951 36.2374 18.7156C36.1778 18.2492 36.4428 17.8218 36.3031 17.3081C36.0976 16.5992 35.3292 16.4657 34.8936 15.9294V15.8431C35.8798 15.5801 36.3894 14.4582 36.1963 13.4965C35.9415 12.2267 34.3573 11.4418 33.7306 12.9192C33.5739 13.2961 33.4781 13.6956 33.447 14.1027L33.3669 13.9609L30.6751 9.62126C29.7361 10.9733 27.3464 12.7466 25.8259 13.3733" fill="#404040"></path><path d="M25.6101 13.6239C25.4199 13.175 25.318 12.6936 25.3101 12.2062C25.2218 10.5397 26.0868 9.04593 27.4245 8.05759C29.0334 6.86788 31.4313 6.66857 33.2333 7.52746C35.4011 8.56512 35.9682 11.2918 36.8148 13.3465L36.7572 13.2746C37.1189 14.0965 37.4147 14.9184 37.7127 15.7403C37.9058 16.2766 38.5058 16.4698 38.7545 16.9588C39.0236 17.4889 38.7277 18.0951 38.8428 18.6478C38.9579 19.2006 39.5065 19.3999 39.8702 19.7553C40.5133 20.3718 40.0962 20.8896 39.9524 21.6252C39.8414 22.1943 40.4044 22.5087 40.7373 22.858C40.9597 23.1066 41.099 23.4183 41.1359 23.7498C41.1727 24.0813 41.1052 24.416 40.9428 24.7073C40.5811 25.408 39.5044 25.3237 38.9312 24.9744C38.3579 24.6251 38.249 23.758 38.3414 23.1457C38.3969 22.7882 38.4524 22.6505 38.1771 22.3423C37.9593 22.0978 37.4394 21.8841 37.3264 21.5697C37.1024 20.9348 37.8236 20.2649 37.2647 19.6053C36.9648 19.2519 36.3175 19.2951 36.2374 18.7156C36.1778 18.2492 36.4428 17.8218 36.3031 17.3081C36.0976 16.5992 35.3292 16.4657 34.8936 15.9294V15.8431C35.8798 15.5801 36.3894 14.4582 36.1963 13.4965C35.9415 12.2267 34.3573 11.4418 33.7306 12.9192C33.5739 13.2961 33.4781 13.6956 33.447 14.1027L33.3669 13.9609L30.6751 9.62126C29.7361 10.9733 27.3464 12.7466 25.8259 13.3733" stroke="#404040" stroke-width="0.8" stroke-linecap="round" stroke-linejoin="round"></path><path d="M27.9546 14.9267C27.9722 14.9951 27.9706 15.0669 27.95 15.1344C27.9293 15.2018 27.8904 15.2622 27.8375 15.3089C27.7813 15.3502 27.7151 15.3758 27.6458 15.383C27.5764 15.3902 27.5064 15.3788 27.443 15.35C27.1532 15.2247 26.621 14.2733 27.1224 14.1172C27.1975 14.1006 27.2755 14.103 27.3494 14.1242C27.4233 14.1453 27.4908 14.1846 27.5457 14.2384C27.7472 14.4251 27.8899 14.6664 27.9566 14.9329" fill="#404040"></path><path d="M30.6566 13.9795C30.6753 14.0476 30.6744 14.1195 30.654 14.1871C30.6337 14.2547 30.5947 14.3152 30.5416 14.3617C30.4853 14.4028 30.4192 14.4282 30.3499 14.4354C30.2806 14.4426 30.2106 14.4314 30.1471 14.4028C29.8553 14.2774 29.3149 13.3261 29.8245 13.1699C29.8995 13.1533 29.9776 13.1558 30.0515 13.1769C30.1254 13.1981 30.1928 13.2374 30.2477 13.2912C30.4492 13.4779 30.592 13.7192 30.6587 13.9857" fill="#404040"></path><path d="M24.1615 33.7543L13.8486 28.7181C12.7226 28.1695 11.1405 27.8489 10.1501 28.8455C8.65216 30.3619 9.75145 32.9674 11.8185 33.0701C12.4356 33.1087 13.05 32.9596 13.5807 32.6423C14.1114 32.3251 14.5336 31.8546 14.7918 31.2927" stroke="#404040" stroke-width="0.8" stroke-linecap="round" stroke-linejoin="round"></path><path d="M29.919 20.3964H29.3601C28.5688 20.3857 27.7849 20.5493 27.064 20.8756C26.3431 21.202 25.7029 21.6831 25.1889 22.2847C24.4019 23.2464 24.1985 24.4731 24.1615 25.6833C24.0876 28.3853 24.1615 31.0483 24.1615 33.7606" stroke="#404040" stroke-width="0.8" stroke-linecap="round" stroke-linejoin="round"></path><path d="M40.949 35.3324L43.6058 37.4775C45.1756 38.7453 47.6763 41.0898 49.7803 39.6063C51.5084 38.3899 50.3331 35.9961 49.6961 34.5002L46.614 27.2674C45.6914 25.1038 44.588 22.0894 42.3195 20.9963C41.2921 20.497 40.1497 20.4066 39.0093 20.4169" stroke="#404040" stroke-width="0.8" stroke-linecap="round" stroke-linejoin="round"></path><path d="M39.447 33.6518C38.9065 32.76 39.1244 31.2785 39.8004 30.5244C40.2718 30.0427 40.9034 29.7503 41.5757 29.7025C43.4907 29.5176 44.7688 31.6463 44.2633 33.3394C44.1581 33.7303 43.9667 34.0925 43.7031 34.3997C43.4396 34.7069 43.1106 34.9511 42.7403 35.1145C42.3699 35.2779 41.9678 35.3562 41.5632 35.3438C41.1587 35.3314 40.762 35.2286 40.4024 35.0428" stroke="#404040" stroke-width="0.8" stroke-linecap="round" stroke-linejoin="round"></path><path d="M43.6079 30.5428L50.214 35.7228" stroke="#404040" stroke-width="0.8" stroke-linecap="round" stroke-linejoin="round"></path><path d="M11.8269 33.0724C12.9036 36.6826 13.8426 40.3339 14.9522 43.9359C15.9323 47.1167 16.9083 50.7557 19.2836 53.2091C22.1069 56.1227 26.4075 56.6261 30.141 55.3645" stroke="#404040" stroke-width="0.8" stroke-linecap="round" stroke-linejoin="round"></path><path d="M41.1544 32.0448C40.4188 34.7243 39.6845 37.4043 38.9517 40.0851C38.4524 41.9036 38.0024 43.7426 37.4558 45.5467C36.3318 49.2453 34.9305 52.5329 31.6614 54.7931" stroke="#404040" stroke-width="0.8" stroke-linecap="round" stroke-linejoin="round"></path><path d="M41.1545 32.0448L35.5861 37.5311C33.6218 39.4666 31.5958 41.4166 29.1794 42.7851C25.5445 44.8398 21.6487 44.6035 18.5254 41.8748C15.8419 39.5283 14.2515 36.1914 12.7988 32.9715" stroke="#404040" stroke-width="0.8" stroke-linecap="round" stroke-linejoin="round"></path><path d="M29.9189 20.3964C31.3203 23.9449 35.7771 24.4689 39.0092 20.6388" stroke="#404040" stroke-width="0.8" stroke-linecap="round" stroke-linejoin="round"></path><path d="M44.3762 38.0981L44.4461 46.0829" stroke="#404040" stroke-width="0.8" stroke-linecap="round" stroke-linejoin="round"></path><path d="M28.154 26.5668C28.0526 28.5059 28.2649 30.4487 28.7828 32.3202C29.6709 35.5184 30.0542 38.8357 29.9191 42.1522" stroke="#404040" stroke-width="0.8" stroke-linecap="round" stroke-linejoin="round"></path><path d="M37.3449 54.0413C37.3449 56.1659 35.6888 57.8878 33.6463 57.8878C31.6039 57.8878 29.9478 56.1659 29.9478 54.0413C29.9478 51.9167 31.6039 50.1948 33.6463 50.1948C35.6888 50.1948 37.3449 51.9167 37.3449 54.0413Z" fill="#404040"></path><path d="M33.6421 57.8878C35.6871 57.8878 37.3448 56.1656 37.3448 54.0413C37.3448 51.9169 35.6871 50.1948 33.6421 50.1948C31.5972 50.1948 29.9395 51.9169 29.9395 54.0413C29.9395 56.1656 31.5972 57.8878 33.6421 57.8878Z" stroke="#404040" stroke-width="0.8" stroke-linecap="round" stroke-linejoin="round"></path><path d="M52.7227 46.1365H39.8887V55.0028H52.7227V46.1365Z" stroke="#404040" stroke-width="0.8" stroke-linecap="round" stroke-linejoin="round"></path><path d="M14.2944 32.3594C15.3835 33.3107 16.5547 34.3258 17.1711 35.6655C17.7279 36.8778 17.6129 38.651 16.306 39.3517L16.2732 39.3764C16.9306 40.2913 17.6888 41.1294 18.5334 41.875C21.5231 44.4866 25.2237 44.8174 28.725 43.0338L28.7004 42.9886L14.7999 31.2929" fill="#404040"></path><path d="M14.2944 32.3594C15.3835 33.3107 16.5547 34.3258 17.1711 35.6655C17.7279 36.8778 17.6129 38.651 16.306 39.3517L16.2732 39.3764C16.9306 40.2913 17.6888 41.1294 18.5334 41.875C21.5231 44.4866 25.2237 44.8174 28.725 43.0338L28.7004 42.9886L14.7999 31.2929" stroke="#404040" stroke-width="0.8" stroke-linecap="round" stroke-linejoin="round"></path><path d="M28.9492 14.9903C29.1896 15.6068 29.1547 16.3156 29.1321 16.9588C29.6006 16.9588 30.0403 17.2917 30.3917 17.6019" stroke="#404040" stroke-width="0.8" stroke-linecap="round" stroke-linejoin="round"></path></svg>